<svg xmlns="http://www.w3.org/2000/svg" xmlns:xlink="http://www.w3.org/1999/xlink" width="48" zoomAndPan="magnify" viewBox="0 0 36 36.000001" height="48" preserveAspectRatio="xMidYMid meet" version="1.0"><defs><clipPath id="44b1ee521e"><path d="M 5 4.09375 L 31.984375 4.09375 L 31.984375 31 L 5 31 Z M 5 4.09375 " clip-rule="nonzero"/></clipPath></defs><g clip-path="url(#44b1ee521e)"><path fill="#f5efea" d="M 8.570312 13.335938 C 8.570312 13.335938 8.527344 11.289062 8.554688 10.460938 C 8.601562 9.09375 9.570312 7.785156 10.828125 7.734375 C 12.699219 7.65625 14.046875 7.683594 14.046875 7.683594 C 14.046875 7.683594 15.328125 6.519531 15.9375 5.9375 C 17.242188 4.683594 18.816406 4.328125 20.214844 5.519531 L 21.253906 5.292969 C 21.253906 5.292969 21.679688 4.117188 22.507812 4.140625 C 23.507812 4.171875 23.84375 5.433594 23.84375 5.433594 C 23.84375 5.433594 24.976562 5.796875 25.027344 6.535156 C 25.074219 7.207031 24.40625 7.660156 24.40625 7.660156 C 24.40625 7.660156 25.09375 7.648438 25.53125 7.671875 C 25.96875 7.695312 28.175781 8.105469 28.226562 10.039062 C 28.273438 11.90625 28.257812 13.261719 28.257812 13.261719 C 28.257812 13.261719 30 14.980469 30.621094 15.710938 C 31.238281 16.4375 31.980469 17.945312 30.867188 19.304688 L 29.585938 20.675781 C 29.585938 20.675781 29.949219 21.15625 30.011719 21.449219 C 30.011719 21.449219 31.355469 21.714844 31.429688 22.960938 C 31.503906 24.269531 30.191406 24.433594 30.191406 24.433594 C 30.191406 24.433594 29.890625 26.015625 28.4375 25.964844 C 28.4375 25.964844 28.25 25.96875 27.980469 25.980469 C 27.980469 25.980469 27.410156 27.292969 25.796875 27.371094 C 24.1875 27.445312 22.710938 27.410156 22.710938 27.410156 C 22.710938 27.410156 21.242188 28.859375 20.773438 29.289062 C 19.597656 30.378906 18.125 31.070312 16.335938 29.605469 C 15.3125 28.765625 14.136719 27.5 14.136719 27.5 C 14.136719 27.5 12.386719 27.566406 11.496094 27.554688 C 9.492188 27.527344 8.308594 26.050781 8.378906 24.515625 C 8.378906 24.515625 7.140625 25.226562 6.503906 23.558594 C 6.503906 23.558594 5.28125 22.96875 5.277344 21.964844 C 5.273438 20.960938 6.191406 20.882812 6.191406 20.882812 L 6.714844 20.011719 C 6.714844 20.011719 4.253906 18.179688 6.148438 15.933594 C 7.800781 13.972656 8.570312 13.335938 8.570312 13.335938 Z M 8.570312 13.335938 " fill-opacity="1" fill-rule="evenodd"/></g><path fill="#468fc3" d="M 14.792969 8.902344 L 11.480469 8.902344 C 10.496094 8.902344 9.695312 9.695312 9.695312 10.675781 L 9.695312 13.980469 L 7.351562 16.320312 C 6.65625 17.011719 6.65625 18.136719 7.351562 18.832031 L 9.695312 21.167969 L 9.695312 24.472656 C 9.695312 25.453125 10.496094 26.25 11.480469 26.25 L 14.792969 26.25 L 17.136719 28.585938 C 17.832031 29.28125 18.960938 29.28125 19.65625 28.585938 L 22 26.25 L 25.3125 26.25 C 26.296875 26.25 27.09375 25.453125 27.09375 24.472656 L 27.09375 21.167969 L 29.4375 18.832031 C 30.132812 18.136719 30.132812 17.011719 29.4375 16.320312 L 27.09375 13.980469 L 27.09375 10.675781 C 27.09375 9.695312 26.296875 8.902344 25.3125 8.902344 L 22 8.902344 L 19.65625 6.5625 C 18.960938 5.871094 17.832031 5.871094 17.136719 6.5625 Z M 14.792969 8.902344 " fill-opacity="1" fill-rule="evenodd"/><path fill="#3c4855" d="M 14.726562 8.746094 L 11.480469 8.746094 C 10.410156 8.746094 9.539062 9.609375 9.539062 10.675781 L 9.539062 13.917969 L 7.242188 16.207031 C 6.484375 16.964844 6.484375 18.1875 7.242188 18.941406 L 9.539062 21.234375 L 9.539062 24.472656 C 9.539062 25.539062 10.410156 26.40625 11.480469 26.40625 L 14.726562 26.40625 L 17.023438 28.699219 C 17.78125 29.453125 19.007812 29.453125 19.765625 28.699219 L 22.0625 26.40625 L 25.3125 26.40625 C 26.382812 26.40625 27.25 25.539062 27.25 24.472656 L 27.25 21.234375 L 29.546875 18.941406 C 30.304688 18.1875 30.304688 16.964844 29.546875 16.207031 L 27.25 13.917969 L 27.25 10.675781 C 27.25 9.609375 26.382812 8.746094 25.3125 8.746094 L 22.0625 8.746094 L 19.765625 6.453125 C 19.007812 5.699219 17.78125 5.699219 17.023438 6.453125 Z M 14.792969 9.054688 C 14.832031 9.054688 14.875 9.039062 14.902344 9.011719 L 17.246094 6.675781 C 17.878906 6.039062 18.910156 6.039062 19.542969 6.675781 L 21.886719 9.011719 C 21.917969 9.039062 21.957031 9.054688 22 9.054688 L 25.3125 9.054688 C 26.210938 9.054688 26.9375 9.78125 26.9375 10.675781 L 26.9375 13.980469 C 26.9375 14.023438 26.953125 14.0625 26.984375 14.09375 L 29.328125 16.429688 C 29.960938 17.0625 29.960938 18.089844 29.328125 18.722656 L 26.984375 21.058594 C 26.953125 21.085938 26.9375 21.128906 26.9375 21.167969 L 26.9375 24.472656 C 26.9375 25.367188 26.210938 26.09375 25.3125 26.09375 L 22 26.09375 C 21.957031 26.09375 21.917969 26.109375 21.886719 26.140625 L 19.542969 28.476562 C 18.910156 29.109375 17.878906 29.109375 17.246094 28.476562 L 14.902344 26.140625 C 14.875 26.109375 14.832031 26.09375 14.792969 26.09375 L 11.480469 26.09375 C 10.582031 26.09375 9.851562 25.367188 9.851562 24.472656 L 9.851562 21.167969 C 9.851562 21.128906 9.835938 21.085938 9.808594 21.058594 L 7.464844 18.722656 C 6.828125 18.089844 6.828125 17.0625 7.464844 16.429688 L 9.808594 14.09375 C 9.835938 14.0625 9.851562 14.023438 9.851562 13.980469 L 9.851562 10.675781 C 9.851562 9.78125 10.582031 9.054688 11.480469 9.054688 Z M 14.792969 9.054688 " fill-opacity="1" fill-rule="evenodd"/><path fill="#45b1b7" d="M 14.792969 10.179688 C 15.132812 10.179688 15.457031 10.042969 15.699219 9.804688 L 18.042969 7.46875 C 18.238281 7.273438 18.554688 7.273438 18.75 7.46875 L 21.09375 9.804688 C 21.332031 10.042969 21.660156 10.179688 22 10.179688 L 25.3125 10.179688 C 25.589844 10.179688 25.8125 10.402344 25.8125 10.675781 L 25.8125 13.980469 C 25.8125 14.320312 25.949219 14.644531 26.1875 14.886719 L 28.53125 17.222656 C 28.726562 17.417969 28.726562 17.734375 28.53125 17.929688 L 26.1875 20.265625 C 25.949219 20.503906 25.8125 20.828125 25.8125 21.167969 L 25.8125 24.472656 C 25.8125 24.75 25.589844 24.972656 25.3125 24.972656 L 22 24.972656 C 21.660156 24.972656 21.332031 25.109375 21.09375 25.347656 L 18.75 27.683594 C 18.554688 27.878906 18.238281 27.878906 18.042969 27.683594 L 15.699219 25.347656 C 15.457031 25.109375 15.132812 24.972656 14.792969 24.972656 L 11.480469 24.972656 C 11.203125 24.972656 10.976562 24.75 10.976562 24.472656 L 10.976562 21.167969 C 10.976562 20.828125 10.84375 20.503906 10.601562 20.265625 L 8.257812 17.929688 C 8.0625 17.734375 8.0625 17.417969 8.257812 17.222656 L 10.601562 14.886719 C 10.84375 14.644531 10.976562 14.320312 10.976562 13.980469 L 10.976562 10.675781 C 10.976562 10.402344 11.203125 10.175781 11.480469 10.175781 L 14.792969 10.175781 Z M 14.792969 10.179688 " fill-opacity="1" fill-rule="evenodd"/><path fill="#3c4855" d="M 14.792969 10.023438 L 11.480469 10.023438 C 11.117188 10.023438 10.820312 10.316406 10.820312 10.675781 L 10.820312 13.980469 C 10.820312 14.28125 10.703125 14.566406 10.492188 14.773438 L 8.148438 17.113281 C 7.890625 17.367188 7.890625 17.78125 8.148438 18.039062 L 10.492188 20.375 C 10.703125 20.585938 10.820312 20.871094 10.820312 21.167969 L 10.820312 24.472656 C 10.820312 24.835938 11.117188 25.128906 11.480469 25.128906 L 14.792969 25.128906 C 15.089844 25.128906 15.375 25.246094 15.585938 25.457031 L 17.929688 27.792969 C 18.1875 28.050781 18.605469 28.050781 18.859375 27.792969 L 21.203125 25.457031 C 21.414062 25.246094 21.699219 25.128906 22 25.128906 L 25.3125 25.128906 C 25.675781 25.128906 25.96875 24.835938 25.96875 24.472656 L 25.96875 21.167969 C 25.96875 20.871094 26.089844 20.585938 26.300781 20.375 L 28.640625 18.039062 C 28.898438 17.78125 28.898438 17.367188 28.640625 17.113281 L 26.300781 14.773438 C 26.089844 14.566406 25.96875 14.28125 25.96875 13.980469 L 25.96875 10.675781 C 25.96875 10.316406 25.675781 10.023438 25.3125 10.023438 L 22 10.023438 C 21.699219 10.023438 21.414062 9.902344 21.203125 9.691406 L 18.859375 7.355469 C 18.605469 7.101562 18.1875 7.101562 17.929688 7.355469 L 15.585938 9.691406 C 15.375 9.902344 15.089844 10.023438 14.792969 10.023438 Z M 14.792969 10.332031 C 15.171875 10.332031 15.539062 10.183594 15.808594 9.914062 L 18.152344 7.578125 C 18.285156 7.441406 18.503906 7.441406 18.640625 7.578125 L 20.980469 9.914062 C 21.25 10.183594 21.617188 10.332031 22 10.332031 L 25.3125 10.332031 C 25.503906 10.332031 25.65625 10.488281 25.65625 10.675781 L 25.65625 13.980469 C 25.65625 14.363281 25.808594 14.726562 26.078125 14.996094 L 28.421875 17.332031 C 28.554688 17.464844 28.554688 17.683594 28.421875 17.820312 L 26.078125 20.15625 C 25.808594 20.425781 25.65625 20.789062 25.65625 21.167969 L 25.65625 24.472656 C 25.65625 24.664062 25.503906 24.816406 25.3125 24.816406 L 22 24.816406 C 21.617188 24.816406 21.25 24.96875 20.980469 25.238281 L 18.640625 27.574219 C 18.503906 27.707031 18.285156 27.707031 18.152344 27.574219 L 15.808594 25.238281 C 15.539062 24.96875 15.171875 24.816406 14.792969 24.816406 L 11.480469 24.816406 C 11.289062 24.816406 11.132812 24.664062 11.132812 24.472656 L 11.132812 21.167969 C 11.132812 20.789062 10.984375 20.425781 10.714844 20.15625 L 8.371094 17.820312 C 8.234375 17.683594 8.234375 17.464844 8.371094 17.332031 L 10.714844 14.996094 C 10.984375 14.726562 11.132812 14.363281 11.132812 13.980469 L 11.132812 10.675781 C 11.132812 10.488281 11.289062 10.332031 11.480469 10.332031 Z M 14.792969 10.332031 " fill-opacity="1" fill-rule="evenodd"/><path fill="#3c4855" d="M 11.667969 24.976562 L 11.480469 24.976562 C 11.203125 24.976562 10.980469 24.75 10.980469 24.476562 L 10.980469 21.171875 C 10.980469 20.832031 10.84375 20.507812 10.605469 20.265625 L 8.261719 17.929688 C 8.066406 17.734375 8.066406 17.417969 8.261719 17.222656 L 10.605469 14.886719 C 10.84375 14.648438 10.980469 14.324219 10.980469 13.984375 L 10.980469 10.679688 C 10.980469 10.402344 11.203125 10.179688 11.480469 10.179688 L 14.792969 10.179688 C 15.132812 10.179688 15.460938 10.042969 15.699219 9.804688 L 18.042969 7.46875 C 18.238281 7.273438 18.554688 7.273438 18.75 7.46875 L 21.09375 9.804688 C 21.335938 10.042969 21.660156 10.179688 22 10.179688 L 25.3125 10.179688 C 25.589844 10.179688 25.816406 10.402344 25.816406 10.679688 L 25.816406 10.851562 C 25.726562 10.730469 25.582031 10.652344 25.421875 10.652344 L 22.195312 10.652344 C 21.863281 10.652344 21.546875 10.519531 21.3125 10.285156 L 19.03125 8.011719 C 18.839844 7.820312 18.53125 7.820312 18.339844 8.011719 L 16.058594 10.285156 C 15.824219 10.519531 15.507812 10.652344 15.175781 10.652344 L 11.949219 10.652344 C 11.679688 10.652344 11.460938 10.871094 11.460938 11.136719 L 11.460938 14.355469 C 11.460938 14.6875 11.328125 15.003906 11.09375 15.238281 L 8.8125 17.511719 C 8.621094 17.703125 8.621094 18.011719 8.8125 18.199219 L 11.09375 20.476562 C 11.328125 20.710938 11.460938 21.027344 11.460938 21.355469 L 11.460938 24.574219 C 11.460938 24.742188 11.542969 24.886719 11.667969 24.976562 Z M 11.667969 24.976562 " fill-opacity="1" fill-rule="evenodd"/><path fill="#f5efea" d="M 16.785156 12.566406 C 16.890625 12.53125 17.007812 12.570312 17.066406 12.667969 C 17.125 12.761719 17.113281 12.886719 17.035156 12.964844 C 16.308594 13.742188 15.867188 14.78125 15.867188 15.925781 C 15.867188 18.335938 17.828125 20.292969 20.246094 20.292969 C 21.085938 20.292969 21.867188 20.058594 22.535156 19.648438 C 22.628906 19.589844 22.75 19.601562 22.832031 19.675781 C 22.910156 19.753906 22.929688 19.875 22.875 19.96875 C 21.988281 21.496094 20.332031 22.523438 18.4375 22.523438 C 15.605469 22.523438 13.308594 20.230469 13.308594 17.410156 C 13.308594 15.160156 14.761719 13.253906 16.785156 12.566406 Z M 16.785156 12.566406 " fill-opacity="1" fill-rule="evenodd"/><path fill="#3c4855" d="M 16.734375 12.417969 C 14.652344 13.125 13.152344 15.09375 13.152344 17.410156 C 13.152344 20.316406 15.519531 22.679688 18.4375 22.679688 C 20.390625 22.679688 22.097656 21.621094 23.007812 20.046875 C 23.101562 19.890625 23.070312 19.691406 22.9375 19.5625 C 22.808594 19.4375 22.605469 19.417969 22.453125 19.515625 C 21.808594 19.910156 21.054688 20.136719 20.246094 20.136719 C 17.914062 20.136719 16.023438 18.25 16.023438 15.925781 C 16.023438 14.824219 16.449219 13.820312 17.148438 13.070312 C 17.273438 12.941406 17.296875 12.738281 17.199219 12.585938 C 17.101562 12.429688 16.910156 12.359375 16.734375 12.417969 Z M 16.832031 12.714844 C 16.871094 12.699219 16.914062 12.714844 16.933594 12.75 C 16.957031 12.78125 16.949219 12.828125 16.921875 12.855469 C 16.921875 12.855469 16.921875 12.855469 16.921875 12.859375 C 16.167969 13.664062 15.710938 14.742188 15.710938 15.925781 C 15.710938 18.421875 17.742188 20.449219 20.246094 20.449219 C 21.113281 20.449219 21.925781 20.207031 22.617188 19.78125 C 22.617188 19.78125 22.621094 19.78125 22.621094 19.78125 C 22.652344 19.757812 22.695312 19.761719 22.722656 19.789062 C 22.75 19.816406 22.757812 19.859375 22.738281 19.890625 C 21.878906 21.371094 20.273438 22.367188 18.4375 22.367188 C 15.691406 22.367188 13.464844 20.144531 13.464844 17.410156 C 13.464844 15.230469 14.875 13.378906 16.832031 12.714844 Z M 16.832031 12.714844 " fill-opacity="1" fill-rule="evenodd"/><path fill="#f5efea" d="M 20.402344 12.980469 C 20.441406 12.898438 20.527344 12.847656 20.617188 12.847656 C 20.710938 12.847656 20.792969 12.898438 20.832031 12.980469 L 21.359375 14.097656 C 21.371094 14.121094 21.390625 14.140625 21.410156 14.15625 C 21.433594 14.171875 21.457031 14.183594 21.484375 14.1875 L 22.710938 14.34375 C 22.800781 14.355469 22.878906 14.417969 22.90625 14.503906 C 22.933594 14.589844 22.910156 14.6875 22.84375 14.75 L 21.941406 15.59375 C 21.921875 15.613281 21.910156 15.636719 21.898438 15.660156 C 21.890625 15.6875 21.890625 15.714844 21.894531 15.738281 L 22.125 16.953125 C 22.144531 17.042969 22.105469 17.132812 22.03125 17.1875 C 21.957031 17.242188 21.859375 17.246094 21.777344 17.203125 L 20.695312 16.609375 C 20.671875 16.597656 20.644531 16.589844 20.617188 16.589844 C 20.589844 16.589844 20.566406 16.597656 20.542969 16.609375 L 19.457031 17.203125 C 19.375 17.246094 19.277344 17.242188 19.203125 17.1875 C 19.128906 17.132812 19.09375 17.042969 19.109375 16.953125 L 19.339844 15.738281 C 19.34375 15.714844 19.34375 15.6875 19.335938 15.660156 C 19.328125 15.636719 19.3125 15.613281 19.292969 15.59375 L 18.390625 14.75 C 18.324219 14.6875 18.300781 14.589844 18.328125 14.503906 C 18.355469 14.417969 18.433594 14.355469 18.523438 14.34375 L 19.75 14.1875 C 19.777344 14.183594 19.804688 14.171875 19.824219 14.15625 C 19.847656 14.140625 19.863281 14.121094 19.875 14.097656 Z M 20.402344 12.980469 " fill-opacity="1" fill-rule="evenodd"/><path fill="#3c4855" d="M 20.261719 12.914062 L 19.734375 14.03125 C 19.734375 14.03125 19.730469 14.03125 19.730469 14.03125 L 18.503906 14.1875 C 18.351562 14.207031 18.226562 14.3125 18.179688 14.457031 C 18.132812 14.601562 18.175781 14.757812 18.285156 14.863281 L 19.183594 15.707031 C 19.1875 15.707031 19.1875 15.710938 19.1875 15.710938 L 18.957031 16.921875 C 18.925781 17.074219 18.988281 17.222656 19.109375 17.3125 C 19.234375 17.402344 19.398438 17.414062 19.53125 17.339844 L 20.617188 16.746094 L 21.703125 17.339844 C 21.835938 17.414062 22 17.402344 22.125 17.3125 C 22.246094 17.222656 22.308594 17.074219 22.28125 16.921875 L 22.050781 15.710938 C 22.050781 15.710938 22.050781 15.707031 22.050781 15.707031 L 22.949219 14.863281 C 23.0625 14.757812 23.101562 14.601562 23.054688 14.457031 C 23.007812 14.3125 22.882812 14.207031 22.730469 14.1875 L 21.503906 14.03125 C 21.5 14.03125 21.5 14.03125 21.5 14.03125 L 20.972656 12.914062 C 20.910156 12.777344 20.769531 12.691406 20.617188 12.691406 C 20.464844 12.691406 20.328125 12.777344 20.261719 12.914062 Z M 20.542969 13.046875 C 20.558594 13.019531 20.585938 13 20.617188 13 C 20.648438 13 20.675781 13.019531 20.691406 13.046875 L 21.21875 14.164062 C 21.242188 14.210938 21.277344 14.253906 21.320312 14.285156 C 21.363281 14.316406 21.410156 14.335938 21.464844 14.339844 L 22.691406 14.496094 C 22.722656 14.5 22.75 14.523438 22.757812 14.550781 C 22.765625 14.582031 22.757812 14.613281 22.738281 14.636719 L 21.835938 15.480469 C 21.796875 15.519531 21.769531 15.5625 21.75 15.613281 C 21.734375 15.664062 21.730469 15.71875 21.742188 15.769531 L 21.972656 16.980469 C 21.976562 17.011719 21.964844 17.042969 21.941406 17.0625 C 21.914062 17.078125 21.882812 17.082031 21.855469 17.066406 L 20.769531 16.472656 C 20.722656 16.449219 20.671875 16.433594 20.617188 16.433594 C 20.566406 16.433594 20.511719 16.449219 20.464844 16.472656 L 19.382812 17.066406 C 19.355469 17.082031 19.320312 17.078125 19.296875 17.0625 C 19.269531 17.042969 19.257812 17.011719 19.261719 16.980469 L 19.492188 15.769531 C 19.503906 15.71875 19.5 15.664062 19.484375 15.613281 C 19.46875 15.5625 19.4375 15.519531 19.398438 15.480469 L 18.5 14.636719 C 18.476562 14.613281 18.46875 14.582031 18.476562 14.550781 C 18.488281 14.523438 18.511719 14.5 18.542969 14.496094 L 19.769531 14.339844 C 19.824219 14.335938 19.875 14.316406 19.917969 14.285156 C 19.960938 14.253906 19.992188 14.210938 20.015625 14.164062 Z M 20.542969 13.046875 " fill-opacity="1" fill-rule="evenodd"/><path fill="#3c4855" d="M 25.019531 13.28125 L 25.019531 11.386719 C 25.019531 11.300781 24.949219 11.230469 24.863281 11.230469 L 22.960938 11.230469 C 22.875 11.230469 22.804688 11.300781 22.804688 11.386719 C 22.804688 11.472656 22.875 11.542969 22.960938 11.542969 L 24.707031 11.542969 L 24.707031 13.28125 C 24.707031 13.371094 24.773438 13.4375 24.863281 13.4375 C 24.949219 13.4375 25.019531 13.371094 25.019531 13.28125 Z M 25.019531 13.28125 " fill-opacity="1" fill-rule="evenodd"/><path fill="#3c4855" d="M 26.253906 19.085938 L 27.597656 17.746094 C 27.660156 17.683594 27.660156 17.585938 27.597656 17.527344 L 26.253906 16.1875 C 26.195312 16.125 26.09375 16.125 26.035156 16.1875 C 25.972656 16.246094 25.972656 16.34375 26.035156 16.40625 L 27.265625 17.636719 L 26.035156 18.867188 C 25.972656 18.925781 25.972656 19.027344 26.035156 19.085938 C 26.09375 19.148438 26.195312 19.148438 26.253906 19.085938 Z M 26.253906 19.085938 " fill-opacity="1" fill-rule="evenodd"/><path fill="#3c4855" d="M 24.707031 22.074219 L 24.707031 23.8125 L 22.960938 23.8125 C 22.875 23.8125 22.804688 23.882812 22.804688 23.96875 C 22.804688 24.054688 22.875 24.125 22.960938 24.125 L 24.863281 24.125 C 24.949219 24.125 25.019531 24.054688 25.019531 23.96875 L 25.019531 22.074219 C 25.019531 21.988281 24.949219 21.917969 24.863281 21.917969 C 24.773438 21.917969 24.707031 21.988281 24.707031 22.074219 Z M 24.707031 22.074219 " fill-opacity="1" fill-rule="evenodd"/><path fill="#3c4855" d="M 19.792969 25.089844 L 18.558594 26.320312 L 17.328125 25.089844 C 17.265625 25.03125 17.167969 25.03125 17.105469 25.089844 C 17.042969 25.152344 17.042969 25.25 17.105469 25.3125 L 18.449219 26.652344 C 18.511719 26.714844 18.609375 26.714844 18.671875 26.652344 L 20.015625 25.3125 C 20.074219 25.25 20.074219 25.152344 20.015625 25.089844 C 19.953125 25.03125 19.855469 25.03125 19.792969 25.089844 Z M 19.792969 25.089844 " fill-opacity="1" fill-rule="evenodd"/><path fill="#3c4855" d="M 12.5 13.28125 L 12.5 11.542969 L 14.242188 11.542969 C 14.332031 11.542969 14.398438 11.472656 14.398438 11.386719 C 14.398438 11.300781 14.332031 11.230469 14.242188 11.230469 L 12.34375 11.230469 C 12.257812 11.230469 12.1875 11.300781 12.1875 11.386719 L 12.1875 13.28125 C 12.1875 13.371094 12.257812 13.4375 12.34375 13.4375 C 12.429688 13.4375 12.5 13.371094 12.5 13.28125 Z M 12.5 13.28125 " fill-opacity="1" fill-rule="evenodd"/><path fill="#3c4855" d="M 17.414062 10.269531 L 18.648438 9.039062 L 19.882812 10.269531 C 19.945312 10.332031 20.042969 10.332031 20.105469 10.269531 C 20.164062 10.207031 20.164062 10.109375 20.105469 10.050781 L 18.757812 8.707031 C 18.699219 8.648438 18.601562 8.648438 18.539062 8.707031 L 17.195312 10.046875 C 17.132812 10.109375 17.132812 10.207031 17.195312 10.269531 C 17.253906 10.328125 17.355469 10.328125 17.414062 10.269531 Z M 17.414062 10.269531 " fill-opacity="1" fill-rule="evenodd"/><path fill="#3c4855" d="M 12.1875 22.074219 L 12.1875 23.96875 C 12.1875 24.054688 12.257812 24.125 12.34375 24.125 L 14.242188 24.125 C 14.332031 24.125 14.398438 24.054688 14.398438 23.96875 C 14.398438 23.882812 14.332031 23.8125 14.242188 23.8125 L 12.5 23.8125 L 12.5 22.074219 C 12.5 21.988281 12.429688 21.917969 12.34375 21.917969 C 12.257812 21.917969 12.1875 21.988281 12.1875 22.074219 Z M 12.1875 22.074219 " fill-opacity="1" fill-rule="evenodd"/><path fill="#3c4855" d="M 10.953125 16.273438 L 9.609375 17.613281 C 9.546875 17.675781 9.546875 17.773438 9.609375 17.832031 L 10.953125 19.175781 C 11.011719 19.234375 11.113281 19.234375 11.171875 19.175781 C 11.234375 19.113281 11.234375 19.015625 11.171875 18.953125 L 9.9375 17.722656 L 11.171875 16.492188 C 11.234375 16.433594 11.234375 16.332031 11.171875 16.273438 C 11.113281 16.210938 11.011719 16.210938 10.953125 16.273438 Z M 10.953125 16.273438 " fill-opacity="1" fill-rule="evenodd"/><path fill="#ffffff" d="M 28.191406 21.375 C 28.242188 21.273438 28.34375 21.207031 28.457031 21.207031 C 28.570312 21.207031 28.675781 21.273438 28.726562 21.375 L 29.15625 22.253906 L 30.039062 22.683594 C 30.140625 22.734375 30.203125 22.835938 30.203125 22.949219 C 30.203125 23.0625 30.140625 23.167969 30.039062 23.21875 L 29.15625 23.648438 L 28.726562 24.527344 C 28.675781 24.628906 28.570312 24.691406 28.457031 24.691406 C 28.34375 24.691406 28.242188 24.628906 28.191406 24.527344 L 27.757812 23.648438 L 26.878906 23.21875 C 26.777344 23.167969 26.710938 23.0625 26.710938 22.949219 C 26.710938 22.835938 26.777344 22.734375 26.878906 22.683594 L 27.757812 22.253906 Z M 28.191406 21.375 " fill-opacity="1" fill-rule="evenodd"/><path fill="#3c4855" d="M 28.050781 21.304688 L 27.644531 22.136719 L 26.808594 22.542969 C 26.652344 22.621094 26.554688 22.777344 26.554688 22.949219 C 26.554688 23.125 26.652344 23.28125 26.808594 23.355469 L 27.644531 23.761719 L 28.050781 24.59375 C 28.125 24.75 28.285156 24.847656 28.457031 24.847656 C 28.632812 24.847656 28.789062 24.75 28.867188 24.59375 L 29.273438 23.761719 L 30.105469 23.355469 C 30.261719 23.28125 30.359375 23.125 30.359375 22.949219 C 30.359375 22.777344 30.261719 22.621094 30.105469 22.542969 L 29.273438 22.136719 L 28.867188 21.304688 C 28.789062 21.152344 28.632812 21.050781 28.457031 21.050781 C 28.285156 21.050781 28.125 21.152344 28.050781 21.304688 Z M 28.332031 21.441406 C 28.355469 21.394531 28.402344 21.363281 28.457031 21.363281 C 28.511719 21.363281 28.5625 21.394531 28.585938 21.441406 L 29.015625 22.324219 C 29.03125 22.355469 29.054688 22.378906 29.085938 22.394531 L 29.96875 22.824219 C 30.019531 22.847656 30.046875 22.898438 30.046875 22.949219 C 30.046875 23.003906 30.019531 23.054688 29.96875 23.078125 L 29.085938 23.507812 C 29.054688 23.523438 29.03125 23.546875 29.015625 23.578125 L 28.585938 24.457031 C 28.5625 24.507812 28.511719 24.535156 28.457031 24.535156 C 28.402344 24.535156 28.355469 24.507812 28.332031 24.457031 L 27.898438 23.578125 C 27.886719 23.546875 27.859375 23.523438 27.828125 23.507812 L 26.945312 23.078125 C 26.898438 23.054688 26.867188 23.003906 26.867188 22.949219 C 26.867188 22.898438 26.898438 22.847656 26.945312 22.824219 L 27.828125 22.394531 C 27.859375 22.378906 27.886719 22.355469 27.898438 22.324219 C 27.898438 22.324219 28.332031 21.441406 28.332031 21.441406 Z M 28.332031 21.441406 " fill-opacity="1" fill-rule="evenodd"/><path fill="#ffffff" d="M 7.417969 20.976562 C 7.449219 20.910156 7.523438 20.863281 7.597656 20.863281 C 7.675781 20.863281 7.746094 20.910156 7.78125 20.976562 L 8.074219 21.578125 L 8.675781 21.871094 C 8.746094 21.90625 8.792969 21.976562 8.792969 22.054688 C 8.792969 22.128906 8.746094 22.199219 8.675781 22.234375 L 8.074219 22.527344 L 7.78125 23.128906 C 7.746094 23.199219 7.675781 23.242188 7.597656 23.242188 C 7.523438 23.242188 7.449219 23.199219 7.417969 23.128906 L 7.121094 22.527344 L 6.519531 22.234375 C 6.453125 22.199219 6.40625 22.128906 6.40625 22.054688 C 6.40625 21.976562 6.453125 21.90625 6.519531 21.871094 L 7.121094 21.578125 Z M 7.417969 20.976562 " fill-opacity="1" fill-rule="evenodd"/><path fill="#3c4855" d="M 7.277344 20.910156 L 7.007812 21.460938 L 6.453125 21.730469 C 6.328125 21.789062 6.25 21.914062 6.25 22.054688 C 6.25 22.191406 6.328125 22.316406 6.453125 22.375 L 7.007812 22.644531 L 7.277344 23.195312 C 7.335938 23.320312 7.460938 23.398438 7.597656 23.398438 C 7.738281 23.398438 7.863281 23.320312 7.921875 23.195312 L 8.191406 22.644531 L 8.746094 22.375 C 8.867188 22.316406 8.949219 22.191406 8.949219 22.054688 C 8.949219 21.914062 8.867188 21.789062 8.746094 21.730469 L 8.191406 21.460938 L 7.921875 20.910156 C 7.863281 20.785156 7.738281 20.707031 7.597656 20.707031 C 7.460938 20.707031 7.335938 20.785156 7.277344 20.910156 Z M 7.558594 21.046875 C 7.566406 21.03125 7.582031 21.019531 7.597656 21.019531 C 7.617188 21.019531 7.632812 21.03125 7.640625 21.046875 L 7.933594 21.644531 C 7.949219 21.675781 7.976562 21.703125 8.007812 21.71875 L 8.609375 22.011719 C 8.625 22.019531 8.632812 22.035156 8.632812 22.054688 C 8.632812 22.070312 8.625 22.085938 8.609375 22.09375 L 8.007812 22.386719 C 7.976562 22.402344 7.949219 22.429688 7.933594 22.460938 L 7.640625 23.058594 C 7.632812 23.074219 7.617188 23.085938 7.597656 23.085938 C 7.582031 23.085938 7.566406 23.074219 7.558594 23.058594 L 7.261719 22.460938 C 7.246094 22.429688 7.222656 22.402344 7.191406 22.386719 L 6.589844 22.09375 C 6.574219 22.085938 6.5625 22.070312 6.5625 22.054688 C 6.5625 22.035156 6.574219 22.019531 6.589844 22.011719 L 7.191406 21.71875 C 7.222656 21.703125 7.246094 21.675781 7.261719 21.644531 Z M 7.558594 21.046875 " fill-opacity="1" fill-rule="evenodd"/><path fill="#ffffff" d="M 22.402344 5.421875 C 22.4375 5.34375 22.519531 5.292969 22.605469 5.292969 C 22.695312 5.292969 22.773438 5.34375 22.8125 5.421875 L 23.148438 6.105469 L 23.828125 6.4375 C 23.90625 6.472656 23.957031 6.554688 23.957031 6.640625 C 23.957031 6.730469 23.90625 6.808594 23.828125 6.847656 L 23.148438 7.179688 L 22.8125 7.859375 C 22.773438 7.941406 22.695312 7.988281 22.605469 7.988281 C 22.519531 7.988281 22.4375 7.941406 22.402344 7.859375 L 22.066406 7.179688 L 21.386719 6.847656 C 21.304688 6.808594 21.257812 6.730469 21.257812 6.640625 C 21.257812 6.554688 21.304688 6.472656 21.386719 6.4375 L 22.066406 6.105469 Z M 22.402344 5.421875 " fill-opacity="1" fill-rule="evenodd"/><path fill="#3c4855" d="M 22.261719 5.355469 L 21.949219 5.988281 L 21.316406 6.296875 C 21.183594 6.359375 21.101562 6.496094 21.101562 6.640625 C 21.101562 6.789062 21.183594 6.925781 21.316406 6.988281 L 21.949219 7.296875 L 22.261719 7.929688 C 22.324219 8.0625 22.460938 8.144531 22.605469 8.144531 C 22.753906 8.144531 22.890625 8.0625 22.953125 7.929688 L 23.265625 7.296875 L 23.898438 6.988281 C 24.03125 6.921875 24.113281 6.789062 24.113281 6.640625 C 24.113281 6.496094 24.03125 6.359375 23.898438 6.296875 L 23.265625 5.988281 L 22.953125 5.355469 C 22.890625 5.222656 22.753906 5.140625 22.605469 5.140625 C 22.460938 5.140625 22.324219 5.222656 22.261719 5.355469 Z M 22.539062 5.492188 C 22.554688 5.464844 22.578125 5.449219 22.605469 5.449219 C 22.636719 5.449219 22.660156 5.464844 22.671875 5.492188 L 23.007812 6.171875 C 23.023438 6.203125 23.046875 6.230469 23.078125 6.242188 L 23.761719 6.574219 C 23.785156 6.589844 23.800781 6.613281 23.800781 6.640625 C 23.800781 6.671875 23.785156 6.695312 23.761719 6.707031 L 23.078125 7.039062 C 23.046875 7.054688 23.023438 7.082031 23.007812 7.113281 L 22.671875 7.792969 C 22.660156 7.816406 22.636719 7.832031 22.605469 7.832031 C 22.578125 7.832031 22.554688 7.816406 22.539062 7.792969 L 22.207031 7.113281 C 22.191406 7.082031 22.167969 7.054688 22.136719 7.039062 L 21.453125 6.707031 C 21.429688 6.695312 21.414062 6.671875 21.414062 6.640625 C 21.414062 6.613281 21.429688 6.589844 21.453125 6.574219 L 22.136719 6.242188 C 22.167969 6.230469 22.191406 6.203125 22.207031 6.171875 C 22.207031 6.171875 22.539062 5.492188 22.539062 5.492188 Z M 22.539062 5.492188 " fill-opacity="1" fill-rule="evenodd"/></svg>